<?xml version="1.0" encoding="UTF-8"?>
<svg xmlns="http://www.w3.org/2000/svg" xmlns:xlink="http://www.w3.org/1999/xlink" width="32px" height="32px" viewBox="0 0 32 32" version="1.1">
<g id="surface1">
<path style=" stroke:none;fill-rule:nonzero;fill:rgb(89.411765%,91.764706%,97.254902%);fill-opacity:1;" d="M 18.847656 13.71875 C 21.441406 11.472656 24.59375 9.171875 24.59375 2.183594 L 7.367188 2.183594 C 7.367188 9.171875 10.523438 11.472656 13.113281 13.71875 C 14.546875 14.960938 14.546875 17.003906 13.113281 18.242188 C 10.523438 20.492188 7.367188 22.789062 7.367188 29.777344 L 24.59375 29.777344 C 24.59375 22.789062 21.441406 20.492188 18.847656 18.242188 C 17.417969 17.003906 17.417969 14.960938 18.847656 13.71875 Z M 18.847656 13.71875 "/>
<path style=" stroke:none;fill-rule:nonzero;fill:rgb(80%,82.352941%,85.882353%);fill-opacity:1;" d="M 14.859375 18.242188 C 16.121094 17.003906 16.121094 14.960938 14.859375 13.71875 C 12.578125 11.472656 9.800781 9.171875 9.800781 2.1875 L 7.367188 2.1875 C 7.367188 9.171875 10.523438 11.472656 13.113281 13.71875 C 14.546875 14.960938 14.546875 17.003906 13.113281 18.242188 C 10.523438 20.492188 7.367188 22.789062 7.367188 29.777344 L 9.800781 29.777344 C 9.800781 22.789062 12.578125 20.492188 14.859375 18.242188 Z M 14.859375 18.242188 "/>
<path style=" stroke:none;fill-rule:nonzero;fill:rgb(99.607843%,79.215686%,34.117647%);fill-opacity:1;" d="M 19.371094 22.167969 C 18.265625 20.933594 16.960938 20.253906 15.980469 18.597656 C 15 20.253906 13.699219 20.933594 12.589844 22.167969 C 11.449219 23.484375 10.5 25.296875 10.5 28.617188 L 21.464844 28.617188 C 21.464844 25.296875 20.515625 23.484375 19.371094 22.167969 Z M 19.371094 22.167969 "/>
<path style=" stroke:none;fill-rule:nonzero;fill:rgb(18.823529%,24.705882%,28.627451%);fill-opacity:1;" d="M 26.164062 31.789062 L 5.800781 31.789062 C 5.515625 31.789062 5.285156 31.558594 5.285156 31.273438 L 5.285156 29.925781 C 5.285156 29.640625 5.515625 29.410156 5.800781 29.410156 L 26.164062 29.410156 C 26.449219 29.410156 26.679688 29.640625 26.679688 29.925781 L 26.679688 31.273438 C 26.679688 31.558594 26.449219 31.789062 26.164062 31.789062 Z M 26.164062 31.789062 "/>
<path style=" stroke:none;fill-rule:nonzero;fill:rgb(18.823529%,24.705882%,28.627451%);fill-opacity:1;" d="M 26.164062 2.554688 L 5.800781 2.554688 C 5.515625 2.554688 5.285156 2.324219 5.285156 2.039062 L 5.285156 0.691406 C 5.285156 0.40625 5.515625 0.175781 5.800781 0.175781 L 26.164062 0.175781 C 26.449219 0.175781 26.679688 0.40625 26.679688 0.691406 L 26.679688 2.039062 C 26.679688 2.324219 26.449219 2.554688 26.164062 2.554688 Z M 26.164062 2.554688 "/>
<path style=" stroke:none;fill-rule:nonzero;fill:rgb(16.078431%,20.392157%,23.921569%);fill-opacity:1;" d="M 9.78125 29.410156 L 5.800781 29.410156 C 5.515625 29.410156 5.285156 29.640625 5.285156 29.925781 L 5.285156 31.273438 C 5.285156 31.558594 5.515625 31.789062 5.800781 31.789062 L 9.78125 31.789062 Z M 9.78125 29.410156 "/>
<path style=" stroke:none;fill-rule:nonzero;fill:rgb(16.078431%,20.392157%,23.921569%);fill-opacity:1;" d="M 9.78125 0.175781 L 5.800781 0.175781 C 5.515625 0.175781 5.285156 0.40625 5.285156 0.691406 L 5.285156 2.039062 C 5.285156 2.324219 5.515625 2.554688 5.800781 2.554688 L 9.78125 2.554688 Z M 9.78125 0.175781 "/>
<path style=" stroke:none;fill-rule:nonzero;fill:rgb(92.54902%,68.627451%,21.176471%);fill-opacity:1;" d="M 14.207031 20.65625 C 13.664062 21.140625 13.105469 21.597656 12.589844 22.167969 C 11.449219 23.484375 10.5 25.296875 10.5 28.617188 L 12.351562 28.617188 C 12.417969 25.050781 13.15625 22.554688 14.207031 20.65625 Z M 14.207031 20.65625 "/>
<path style=" stroke:none;fill-rule:nonzero;fill:rgb(99.607843%,79.215686%,34.117647%);fill-opacity:1;" d="M 17.847656 11.179688 C 17.238281 11.859375 16.523438 12.234375 15.980469 13.144531 C 15.441406 12.234375 14.726562 11.859375 14.117188 11.179688 C 13.488281 10.457031 12.964844 9.457031 12.964844 7.628906 L 19 7.628906 C 19 9.457031 18.476562 10.457031 17.847656 11.179688 Z M 17.847656 11.179688 "/>
<path style=" stroke:none;fill-rule:nonzero;fill:rgb(92.54902%,68.627451%,21.176471%);fill-opacity:1;" d="M 15.007812 12.011719 C 14.707031 11.746094 14.398438 11.496094 14.117188 11.179688 C 13.488281 10.457031 12.964844 9.457031 12.964844 7.628906 L 13.984375 7.628906 C 14.019531 9.59375 14.425781 10.96875 15.007812 12.011719 Z M 15.007812 12.011719 "/>
</g>
</svg>
